<svg xmlns="http://www.w3.org/2000/svg" id="Capa_2" data-name="Capa 2" viewBox="0 0 1055 298.28"><defs><style>      .cls-1 {        fill: #fff;      }      .cls-1, .cls-2 {        stroke-width: 0px;      }      .cls-2 {        fill: #0057d6;      }    </style></defs><g id="Capa_1-2" data-name="Capa 1"><g><path class="cls-1" d="M69.2,143.05h-20.6l-10.08,16.28-10.8-16.28H7.09c-3.92,0-7.09-3.18-7.09-7.09V7.09C0,3.18,3.18,0,7.09,0h62.11c3.92,0,7.09,3.18,7.09,7.09v128.86c0,3.92-3.18,7.09-7.09,7.09Z"></path><path class="cls-2" d="M37.93,93.66c1.29,0,2.55-.11,3.79-.31v21.09c0,1.98-1.6,3.58-3.58,3.58h0c-1.98,0-3.58-1.6-3.58-3.58v-21.03c1.1.15,2.22.25,3.36.25ZM38.03,52.69c-2.04,0-3.7,1.66-3.7,3.7s1.66,3.7,3.7,3.7,3.7-1.66,3.7-3.7-1.66-3.7-3.7-3.7ZM23.46,38.1c.06.07.13.14.19.2.68.67,1.78.69,2.49.07l.29-.25c.81-.7,1.68-1.34,2.59-1.88,1.06-.64,2.19-1.18,3.34-1.59,1.2-.43,2.46-.72,3.72-.86.51-.06,1.01-.1,1.5-.11.56-.02,1.11,0,1.65.04.52.04,1.06.1,1.61.19.83.14,1.67.35,2.48.61,1.68.55,3.29,1.36,4.78,2.41.62.43,1.22.91,1.82,1.45.33.3.77.46,1.22.46.49,0,.94-.19,1.32-.57.05-.06.11-.11.14-.15.25-.27.39-.57.44-.85l.05-.1-.02-.68-.02-.04c-.07-.36-.26-.68-.55-.94-.18-.17-.36-.32-.55-.48-1.07-.92-2.22-1.73-3.42-2.41-1.24-.72-2.56-1.3-3.91-1.75-.91-.3-1.81-.54-2.71-.7-.52-.11-.95-.17-1.36-.21-.42-.05-.83-.08-1.26-.12-.17-.01-.35-.02-.5-.02l-.29-.02h-1.03c-.46.02-.94.06-1.41.1-1.55.14-3.08.46-4.55.95-2.22.73-4.32,1.82-6.23,3.25-.58.44-1.16.91-1.68,1.38-.35.3-.55.69-.63,1.18l-.02.3.05.17c.06.36.21.69.48.97ZM42.9,50.35l.38.02.08-.04c.5-.06.94-.32,1.25-.74.3-.41.42-.86.35-1.36-.07-.46-.29-.85-.64-1.14-.73-.6-1.54-1.1-2.38-1.47-.93-.41-1.9-.67-2.87-.77-.48-.05-.87-.06-1.25-.05-.6.01-1.19.08-1.76.2-1.57.33-3.03,1.05-4.32,2.11-.13.11-.25.24-.35.38-.33.51-.41,1.13-.18,1.69.23.57.72.99,1.32,1.13l.58.05.17-.04c.3-.06.58-.19.82-.38.3-.23.6-.43.89-.6.66-.37,1.37-.62,2.1-.74.39-.07.8-.1,1.22-.07.97.05,1.9.32,2.77.8.32.18.62.38.89.6.29.23.61.37.93.41ZM47.54,44.41c.5-.11.95-.42,1.23-.88.26-.46.32-1.01.17-1.5-.11-.31-.29-.58-.56-.83-1.22-1.11-2.55-2.01-3.96-2.69-1.56-.75-3.22-1.23-4.92-1.39-.45-.05-.94-.07-1.39-.07-.43,0-.92.02-1.38.06-.52.05-1.06.13-1.56.24-1.24.26-2.47.68-3.61,1.25-1.12.56-2.16,1.23-3.11,2.01-.26.21-.51.44-.76.67-.46.43-.66,1-.56,1.62.11.69.56,1.23,1.22,1.47.21.07.42.11.63.11.44,0,.86-.17,1.22-.49.72-.64,1.5-1.19,2.32-1.65,1.69-.92,3.52-1.41,5.42-1.44.44.01.88.01,1.32.06.55.06,1.07.15,1.57.27,1.11.27,2.18.72,3.17,1.3.72.43,1.38.92,1.98,1.45.42.41.99.56,1.57.44ZM60.29,68.41c0-2.3-2.36-4.08-4.82-2.99-1.15.51-1.82,1.74-1.82,3v-.1h0c0,7.4-5.07,13.64-11.92,15.43v-14.89c0-1.77-1.19-3.42-2.93-3.73-2.26-.4-4.22,1.33-4.22,3.52v14.84c-6.8-1.47-11.92-7.53-11.92-14.77v-.32c0-2.52-2.63-4.46-5.31-3.16-1.15.55-1.84,1.76-1.84,3.03v.17h0c0,12.34,10.03,22.38,22.38,22.38s22.38-10.03,22.38-22.38h0s.04-.01.04-.02Z"></path><g><polygon class="cls-1" points="187.16 72.72 100.14 72.72 100.14 89.41 134.71 89.41 134.71 176.43 153.78 176.43 153.78 89.41 187.16 89.41 187.16 72.72"></polygon><path class="cls-1" d="M211.22,99.47c-22.14,0-37.73,16.02-37.73,38.9,0,21.12,15.29,38.9,39.91,38.9,18.5,0,29.86-10.63,29.86-10.63l-7.14-13.26s-9.47,8.15-21.41,8.15c-11.07,0-21.12-6.7-22.29-19.67h51.27s.44-4.95.44-7.14c0-19.67-11.5-35.25-32.91-35.25ZM193.01,129.94c1.75-9.61,8.31-15.44,17.77-15.44,8.15,0,14.42,5.39,14.71,15.44h-32.48Z"></path><path class="cls-1" d="M276.56,150.22v-77.5h-19.07v80.26c0,21.27,13.16,23.89,23.75,23.89,3.18,0,6.05-.44,6.05-.44v-16.16s-1.36.14-2.87.14c-4.99,0-7.86-2.04-7.86-10.19Z"></path><path class="cls-1" d="M332.34,99.47c-22.14,0-37.73,16.02-37.73,38.9,0,21.12,15.29,38.9,39.91,38.9,18.5,0,29.86-10.63,29.86-10.63l-7.14-13.26s-9.47,8.15-21.41,8.15c-11.07,0-21.12-6.7-22.29-19.67h51.27s.44-4.95.44-7.14c0-19.67-11.5-35.25-32.91-35.25ZM314.13,129.94c1.75-9.61,8.31-15.44,17.77-15.44,8.15,0,14.42,5.39,14.71,15.44h-32.48Z"></path><path class="cls-1" d="M421.44,99.94c-17.31,0-23.67,12.12-23.67,12.12h-1.09s.29-2.39.29-5.22v-5.51h-16.69v103.71h19.07v-31.79c0-3.76-.28-6.35-.28-6.35h.28s6.5,10.1,21.07,10.1c19.33,0,33.62-15.15,33.62-38.54,0-22.78-12.7-38.51-32.61-38.51ZM416.49,162.25c-12.23,0-18.5-11.36-18.5-22.86,0-16.46,9.04-23.45,18.64-23.45,10.92,0,18.5,9.18,18.5,23.31,0,14.7-8.45,23.01-18.64,23.01Z"></path><path class="cls-1" d="M483.46,122.48c0-4.66,4.66-6.7,9.47-6.7,11.36,0,18.2,6.41,18.2,6.41l6.84-13.7s-8.15-8.45-24.91-8.45-28.41,8.01-28.41,21.85c0,23.89,36.12,22.44,36.12,33.5,0,4.37-4.52,6.7-9.76,6.7-12.09,0-20.25-8.15-20.25-8.15l-8.45,12.97s10.35,10.93,28.84,10.93,28.41-9.91,28.41-22.29c.04-23.89-36.08-22.58-36.08-33.07Z"></path><rect class="cls-1" x="534.06" y="102.52" width="19.07" height="73.91"></rect><rect class="cls-1" x="534.06" y="72.72" width="17.88" height="16.69"></rect><path class="cls-1" d="M608.94,162.1c-14.13,0-23.16-10.78-23.16-23.31s8.88-23.02,22.58-23.02c11.66,0,19.37,8.01,19.37,8.01l8.15-12.67s-9.18-11.07-28.55-11.07c-24.62,0-40.35,17.77-40.35,38.9s15.74,38.9,40.35,38.9c19.96,0,30.59-12.09,30.59-12.09l-7.14-13.11s-9.31,9.47-21.84,9.47Z"></path><path class="cls-1" d="M686.55,100.04c-22.58,0-40.78,16.16-40.78,38.9s18.2,38.9,40.94,38.9,40.78-16.02,40.78-38.9c-.01-22.73-18.22-38.9-40.94-38.9ZM686.69,162.1c-12.09,0-22.14-9.32-22.14-23.16s10.05-23.16,22.14-23.16,21.99,9.47,21.99,23.16-10.05,23.16-21.99,23.16Z"></path><path class="cls-1" d="M759.36,150.22v-77.5h-19.07v80.26c0,21.27,12.64,23.89,22.8,23.89,3.05,0,5.81-.44,5.81-.44v-16.16s-1.21.14-2.55.14c-4.43,0-6.98-2.04-6.98-10.19Z"></path><path class="cls-1" d="M818,100.04c-22.58,0-40.78,16.16-40.78,38.9s18.2,38.9,40.94,38.9,40.78-16.02,40.78-38.9c0-22.73-18.22-38.9-40.94-38.9ZM818.14,162.1c-12.09,0-22.14-9.32-22.14-23.16s10.05-23.16,22.14-23.16,21.99,9.47,21.99,23.16c.01,13.84-10.05,23.16-21.99,23.16Z"></path><path class="cls-1" d="M924.64,107.29c0,1.35.14,2.38.14,2.38h-1.2s-6.01-9.42-22.67-9.42c-22.07,0-33.94,16.53-33.94,36.84s12.46,37.42,34.39,37.42c10.21,0,16.82-3.48,21.32-10.01h.29s-.29,2.17-.29,3.92v4.36c0,13.2-9.92,17.98-21.63,17.98s-21.17-4.78-21.17-4.78l-5.7,14.07c7.36,3.77,17.57,6.39,27.18,6.39,19.97,0,40.4-9.57,40.4-34.96v-70.15h-17.88v5.96h.77ZM906.73,159.04c-11.94,0-18.64-9.61-18.64-22.58s6.26-20.68,17.48-20.68c10.05,0,18.36,4.52,18.36,21.41s-8.31,21.85-17.19,21.85Z"></path><polygon class="cls-1" points="986.94 72.72 967.43 72.72 956.1 92.98 971.3 92.98 986.94 72.72"></polygon><rect class="cls-1" x="958.44" y="102.52" width="19.07" height="73.91"></rect><path class="cls-1" d="M1022.9,98.89c-18.31,0-30.27,9.31-30.27,9.31l7.27,13.45s10.14-7.24,21.19-7.24c8.47,0,14.84,3.4,14.84,13.3v1.04h-2.58c-12.56,0-45.7,1.62-45.7,25.57,0,15.07,12.41,23.5,26.18,23.5,17.56,0,23.61-13.3,23.46-13.3h1.3s-.28,2.45-.28,5.5v6.42h16.69v-47.54c-.01-19.07-11.82-30.01-32.1-30.01ZM1035.93,143.62c0,9.04-7,19.51-16.75,19.51-7.57,0-11.22-4.66-11.22-9.62,0-10.35,15.29-11.66,24.76-11.66h3.21v1.76h0Z"></path></g><g><path class="cls-1" d="M153.41,285.09s5.46,5.53,13.09,5.53c4.8,0,8.87-2.69,8.87-7.56,0-11.12-24.87-8.73-24.87-24.51,0-8,6.91-14.33,16.58-14.33s14.54,5.16,14.54,5.16l-3.28,5.96s-4.73-4.43-11.28-4.43c-5.46,0-9.31,3.42-9.31,7.49,0,10.62,24.87,7.78,24.87,24.44,0,7.93-6.1,14.47-16.3,14.47-10.91,0-17.02-6.76-17.02-6.76l4.1-5.46Z"></path><path class="cls-1" d="M210.57,272.99h1.62v-.66c0-6.07-3.47-8.12-8.18-8.12-5.75,0-10.39,3.59-10.39,3.59l-2.95-5.2s5.76-4.7,14.83-4.38c7.76.28,13.84,6.82,13.84,14.59v22.82s-5.96,0-5.96,0v-3.25c0-1.55.13-2.71.13-2.71h-.8s-3.02,7.32-11.94,7.32c-6.42,0-12.67-3.88-12.67-11.27,0-12.24,16.21-12.74,22.47-12.74ZM203.56,291.82c5.96,0,9.82-6.26,9.82-11.71v-1.17h-1.81c-5.3,0-14.91.37-14.91,6.99-.01,2.98,2.32,5.89,6.9,5.89Z"></path><path class="cls-1" d="M230.07,245.57h7.15v40.07c0,4.43,1.61,5.23,3.62,5.23.61,0,1.15-.07,1.15-.07v6.26s-1.07.14-2.27.14c-3.9,0-9.65-1.1-9.65-10.32v-41.31h0Z"></path><path class="cls-1" d="M250.33,259.88h7.16v21.96c0,5.09,1.03,9.17,7,9.17,7.58,0,12.07-6.62,12.07-13.89v-17.24h7.15v36.95h-7.15v-4.41c0-1.56.14-2.75.14-2.75h-.14c-1.53,3.71-6.36,8.61-13.59,8.61-8.32,0-12.63-4.45-12.63-14.38v-24.03h-.01Z"></path><path class="cls-1" d="M308.81,258.75c8.62,0,11.49,5.89,11.49,5.89h.51s-.14-1.07-.14-2.42v-16.66h7.15v51.26h-7.15v-3.46c0-1.47.07-2.5.07-2.5h-.14s-3.02,6.92-12.23,6.92c-10.09,0-16.41-7.95-16.41-19.52-.01-11.85,6.98-19.52,16.85-19.52ZM309.89,291.2c5.46,0,10.62-3.85,10.62-13.23,0-6.54-3.42-13.09-10.4-13.09-5.82,0-10.62,4.8-10.62,13.16s4.28,13.16,10.4,13.16Z"></path><path class="cls-1" d="M362.1,245.57h7.61l11.74,27.68c1.16,2.83,2.54,6.89,2.54,6.89h.14s1.38-4.06,2.54-6.89l11.74-27.68h7.66l4.05,50.07h-7.1l-2.51-31.89c-.21-3.08-.07-7.45-.07-7.45h-.1s-1.54,4.78-2.79,7.63l-10.36,23.36h-6.3l-10.23-23.24c-1.17-2.78-2.78-7.75-2.78-7.75h-.1s.07,4.63-.14,7.8l-2.5,32.73h-7.18l4.14-51.26Z"></path><path class="cls-1" d="M437.44,258.66c10.4,0,15.93,7.71,15.93,17.24,0,.94-.21,3.05-.21,3.05h-26.83c.37,8.07,6.1,12.15,12.65,12.15s10.91-4.29,10.91-4.29l2.91,5.16s-5.46,5.23-14.26,5.23c-11.56,0-19.49-8.37-19.49-19.28.01-11.69,7.94-19.26,18.41-19.26ZM446.16,274.18c-.21-6.33-4.15-9.38-8.87-9.38-5.38,0-9.74,3.35-10.76,9.38h19.63Z"></path><path class="cls-1" d="M462.54,259.88h7.14v4.41c0,1.48-.14,2.75-.14,2.75h.14c1.44-3.26,5.76-8.61,13.69-8.61,8.57,0,12.54,4.83,12.54,14.38v24.03h-7.15v-21.96c0-5.16-1.09-9.24-6.94-9.24s-10.04,3.71-11.56,9.01c-.44,1.45-.58,3.12-.58,4.95v17.24h-7.15v-36.95h.01Z"></path><path class="cls-1" d="M507.83,265.84h-4.77v-5.96h4.77v-10.73h7.15v10.73h9.54v5.96h-9.54v16.37c0,7.34,5.17,8.29,7.87,8.29,1.01,0,1.67-.14,1.67-.14v6.26s-1.02.14-2.49.14c-4.77,0-14.2-1.45-14.2-13.74v-17.17Z"></path><path class="cls-1" d="M552.7,272.99h1.62v-.66c0-6.07-3.47-8.12-8.18-8.12-5.75,0-10.39,3.59-10.39,3.59l-2.95-5.2s5.76-4.7,14.83-4.38c7.76.28,13.84,6.82,13.84,14.59v22.82s-5.96,0-5.96,0v-3.25c0-1.55.13-2.71.13-2.71h-.8s-3.02,7.32-11.94,7.32c-6.42,0-12.67-3.88-12.67-11.27,0-12.24,16.21-12.74,22.47-12.74ZM544.5,291.82c5.96,0,9.82-6.26,9.82-11.71v-1.17h-1.82c-5.3,0-14.91.37-14.91,6.99.01,2.98,2.34,5.89,6.91,5.89Z"></path><path class="cls-1" d="M572.2,245.57h7.15v40.07c0,4.43,1.61,5.23,3.62,5.23.61,0,1.15-.07,1.15-.07v6.26s-1.07.14-2.27.14c-3.9,0-9.65-1.1-9.65-10.32v-41.31h0Z"></path><path class="cls-1" d="M630.19,272.99h1.62v-.66c0-6.07-3.47-8.12-8.18-8.12-5.75,0-10.39,3.59-10.39,3.59l-2.95-5.2s5.76-4.7,14.83-4.38c7.76.28,13.84,6.82,13.84,14.59v22.82s-5.96,0-5.96,0v-3.25c0-1.55.13-2.71.13-2.71h-.8s-3.02,7.32-11.94,7.32c-6.42,0-12.67-3.88-12.67-11.27,0-12.24,16.21-12.74,22.47-12.74ZM621.99,291.82c5.96,0,9.82-6.26,9.82-11.71v-1.17h-1.82c-5.3,0-14.91.37-14.91,6.99.01,2.98,2.34,5.89,6.91,5.89Z"></path><path class="cls-1" d="M668.76,259.88h7.15v21.96c0,5.09,1.03,9.17,6.99,9.17,7.59,0,12.08-6.62,12.08-13.89v-17.24h7.15v36.95h-7.15v-4.41c0-1.56.14-2.75.14-2.75h-.14c-1.53,3.71-6.36,8.61-13.59,8.61-8.33,0-12.63-4.45-12.63-14.38v-24.03Z"></path><path class="cls-1" d="M712.88,259.88h7.14v4.41c0,1.48-.14,2.75-.14,2.75h.14c1.44-3.26,5.76-8.61,13.69-8.61,8.57,0,12.54,4.83,12.54,14.38v24.03h-7.15v-21.96c0-5.16-1.09-9.24-6.94-9.24s-10.04,3.71-11.56,9.01c-.44,1.45-.58,3.12-.58,4.95v17.24h-7.15v-36.95h.01Z"></path><path class="cls-1" d="M800.95,244.21c12.36,0,18.69,6.76,18.69,6.76l-3.56,5.38s-5.96-5.6-14.84-5.6c-11.49,0-18.98,8.73-18.98,19.63s7.63,20.29,19.05,20.29c9.67,0,15.85-6.69,15.85-6.69l3.85,5.16s-7.06,8.14-19.93,8.14c-15.41,0-26.25-11.78-26.25-26.83.01-14.89,11.21-26.24,26.12-26.24Z"></path><path class="cls-1" d="M829.69,245.57h7.15v40.07c0,4.43,1.61,5.23,3.62,5.23.61,0,1.15-.07,1.15-.07v6.26s-1.07.14-2.27.14c-3.9,0-9.65-1.1-9.65-10.32v-41.31h0Z"></path><path class="cls-1" d="M849.96,245.57h7.15v7.15h-7.15v-7.15ZM849.96,259.88h7.15v36.95h-7.15v-36.95Z"></path><path class="cls-1" d="M885.38,258.76c9.24,0,13.82,5.38,13.82,5.38l-3.35,4.95s-3.92-4.22-10.18-4.22c-7.41,0-12.8,5.53-12.8,13.09s5.38,13.23,13.02,13.23c6.83,0,11.35-4.95,11.35-4.95l2.84,5.16s-5.09,5.89-14.69,5.89c-11.56,0-19.71-8.21-19.71-19.28-.01-10.88,8.14-19.25,19.71-19.25Z"></path><path class="cls-1" d="M908.36,245.57h7.16v27.42h5.04l9.81-13.11h7.82l-11.94,15.71v.13l13.31,21.11h-8.03l-10.81-17.88h-5.19v17.88h-7.15v-51.26h-.01Z"></path></g></g></g></svg>